<svg xmlns="http://www.w3.org/2000/svg" viewBox="0 0 64 64">
  <defs>
    <linearGradient id="bg" x1="0" y1="0" x2="1" y2="1">
      <stop offset="0%" stop-color="#1976D2"/>
      <stop offset="100%" stop-color="#0D47A1"/>
    </linearGradient>
    <linearGradient id="leaf" x1="0" y1="0" x2="1" y2="1">
      <stop offset="0%" stop-color="#9BEF45"/>
      <stop offset="100%" stop-color="#28B463"/>
    </linearGradient>
  </defs>

  <rect width="64" height="64" rx="15" fill="url(#bg)"/>

  <!-- Heart -->
  <path
    d="M32 49
       C29 46 15 36 15 25
       C15 19 19 15 24 15
       C28 15 31 18 32 21
       C33 18 36 15 40 15
       C45 15 49 19 49 25
       C49 36 35 46 32 49Z"
    fill="none"
    stroke="white"
    stroke-width="4"
    stroke-linejoin="round"
  />

  <!-- ECG -->
  <path
    d="M19 30 H26 L29 25 L33 36 L37 28 L39 30 H45"
    fill="none"
    stroke="white"
    stroke-width="3"
    stroke-linecap="round"
    stroke-linejoin="round"
  />

  <!-- Leaf -->
  <path
    d="M20 48 C13 44 11 37 14 32 C21 34 25 39 24 45 C23 47 21 48 20 48Z"
    fill="url(#leaf)"
  />

  <path
    d="M16 35 C19 38 21 41 22 45"
    fill="none"
    stroke="#168A4A"
    stroke-width="1.5"
    stroke-linecap="round"
  />
</svg>
